<?xml version="1.0" encoding="UTF-8" standalone="no"?>
<svg
   xmlns:dc="http://purl.org/dc/elements/1.1/"
   xmlns:cc="http://creativecommons.org/ns#"
   xmlns:rdf="http://www.w3.org/1999/02/22-rdf-syntax-ns#"
   xmlns:svg="http://www.w3.org/2000/svg"
   xmlns="http://www.w3.org/2000/svg"
   xmlns:sodipodi="http://sodipodi.sourceforge.net/DTD/sodipodi-0.dtd"
   xmlns:inkscape="http://www.inkscape.org/namespaces/inkscape"
   width="210mm"
   height="297mm"
   viewBox="0 0 210 297"
   version="1.1"
   id="svg8"
   inkscape:version="1.0.2 (e86c870879, 2021-01-15)"
   sodipodi:docname="others.svg">
  <defs
     id="defs2" />
  <sodipodi:namedview
     id="base"
     pagecolor="#ffffff"
     bordercolor="#666666"
     borderopacity="1.0"
     inkscape:pageopacity="0.0"
     inkscape:pageshadow="2"
     inkscape:zoom="0.64290743"
     inkscape:cx="703.07944"
     inkscape:cy="468.61879"
     inkscape:document-units="mm"
     inkscape:current-layer="layer1"
     inkscape:document-rotation="0"
     showgrid="false"
     inkscape:window-width="1920"
     inkscape:window-height="1010"
     inkscape:window-x="0"
     inkscape:window-y="0"
     inkscape:window-maximized="1" />
  <metadata
     id="metadata5">
    <rdf:RDF>
      <cc:Work
         rdf:about="">
        <dc:format>image/svg+xml</dc:format>
        <dc:type
           rdf:resource="http://purl.org/dc/dcmitype/StillImage" />
        <dc:title></dc:title>
      </cc:Work>
    </rdf:RDF>
  </metadata>
  <g
     inkscape:label="Layer 1"
     inkscape:groupmode="layer"
     id="layer1">
    <path
       style="fill:#d4aa00;fill-rule:evenodd;stroke:#000000;stroke-width:0.483936;stroke-miterlimit:4;stroke-dasharray:none"
       d="m 34.45746,48.8304 c -1.59085,-1.59085 -2.41949,-2.64259 -2.41949,-3.0709 0,-0.47209 3.33453,-3.9521 12.11266,-12.6411 l 12.11266,-11.989681 -3.57654,-3.57654 c -4.02645,-4.02645 -4.27341,-4.581866 -2.74608,-6.176046 l 0.83045,-0.866807 h 9.97386 c 9.96517,0 9.9744,5.29e-4 10.59515,0.654759 0.34171,0.360116 0.73967,0.957924 0.88435,1.328462 0.14468,0.370536 0.26306,4.901748 0.26306,10.069356 0,9.300027 -0.007,9.405717 -0.66413,10.384447 -0.50988,0.75916 -0.89848,1.00834 -1.67327,1.07291 -0.92484,0.0771 -1.21959,-0.12957 -3.528,-2.47353 -1.38536,-1.40671 -2.99203,-3.01137 -3.57038,-3.56591 l -1.05154,-1.00826 -12.1519,12.13916 c -6.68354,6.67655 -12.33628,12.13917 -12.56163,12.13917 -0.22536,0 -1.49851,-1.08877 -2.82923,-2.41949 z"
       id="path847" />
    <path
       style="fill:#d4aa00;fill-rule:evenodd;stroke:#000000;stroke-width:0.484;stroke-miterlimit:4;stroke-dasharray:none;stroke-dashoffset:0"
       d="M 14.60376,66.36472 C 12.39049,65.91771 9.88244,63.84748 8.279,61.14403 L 7.15713,59.2525 7.07573,41.40073 6.99433,23.54896 7.7258,21.951213 c 1.40807,-3.075627 3.49676,-5.039746 6.39445,-6.013095 1.25666,-0.422116 3.19084,-0.481724 15.63123,-0.481724 16.06243,0 14.80432,-0.202526 14.79515,2.381652 -0.008,2.279917 1.08173,2.112153 -14.775,2.274414 l -14.21915,0.145499 -1.20916,0.800587 c -0.66505,0.440322 -1.5064,1.356985 -1.86968,2.03703 l -0.66051,1.236444 v 16.73273 c 0,16.40505 0.0119,16.75553 0.60792,17.89675 0.33436,0.64021 1.16399,1.55687 1.84363,2.03703 l 1.2357,0.87301 16.99389,0.0796 16.99389,0.0796 1.09626,-0.6995 c 2.78379,-1.77627 2.98779,-2.48875 2.98779,-10.43483 0,-3.83987 0.11988,-6.60178 0.30124,-6.94067 0.24552,-0.45875 0.61851,-0.56288 2.01625,-0.56288 2.76741,0 2.69215,-0.23362 2.56841,7.97294 -0.12898,8.55515 -0.36422,9.43741 -3.25508,12.20859 -3.33792,3.19971 -1.50406,2.94618 -21.7101,3.00146 -9.68316,0.0265 -18.18331,-0.0685 -18.88923,-0.21105 z"
       id="path849" />
    <path
       style="fill:#d4aa00;fill-rule:evenodd;stroke:#000000;stroke-width:0.483936;stroke-miterlimit:4;stroke-dasharray:none"
       d="m 113.12688,132.14989 c -0.0113,2.24977 -0.17579,3.57859 -0.48017,3.87992 -0.3355,0.33213 -5.15456,0.41072 -17.505212,0.28546 l -17.04228,-0.17283 -0.0255,5.05792 c -0.0287,5.69419 -0.24967,6.26045 -2.45712,6.2966 l -1.20025,0.0197 -7.01696,-7.08803 c -7.01084,-7.08186 -7.01696,-7.08879 -6.98875,-7.9902 0.0155,-0.4962 0.16038,-1.19959 0.32192,-1.5631 0.16154,-0.3635 3.29841,-3.63549 6.97082,-7.27108 6.60917,-6.5429 6.68921,-6.61228 7.84707,-6.83385 0.89822,-0.17175 1.34869,-0.0709 1.93967,0.43429 0.70545,0.60301 0.76595,0.95787 0.72423,4.24743 -0.025,1.97419 -0.0351,4.24492 -0.0223,5.04607 l 0.0233,1.45663 17.17611,0.0956 c 9.446872,0.0525 17.305842,0.22658 17.464382,0.38673 0.15855,0.16016 0.28051,1.83092 0.27102,3.71282 z"
       id="path847-5"
       inkscape:export-xdpi="89.800003"
       inkscape:export-ydpi="89.800003" />
    <path
       style="fill:#d4aa00;fill-rule:evenodd;stroke:#000000;stroke-width:0.484;stroke-miterlimit:4;stroke-dasharray:none;stroke-dashoffset:0"
       d="m 58.405964,161.57101 c -2.21327,-0.44701 -4.72132,-2.51724 -6.32476,-5.22069 l -1.12187,-1.89153 -0.0814,-17.85177 -0.0814,-17.85177 0.73147,-1.59775 c 1.40807,-3.07562 3.49676,-5.03974 6.39445,-6.01309 1.25666,-0.42212 3.19084,-0.48173 15.63123,-0.48173 16.06243,0 14.80432,-0.20252 14.79515,2.38166 -0.008,2.27991 1.08173,2.11215 -14.775,2.27441 l -14.21915,0.1455 -1.20916,0.80059 c -0.66505,0.44032 -1.5064,1.35698 -1.86968,2.03703 l -0.66051,1.23644 v 16.73273 c 0,16.40505 0.0119,16.75553 0.60792,17.89675 0.33436,0.64021 1.16399,1.55687 1.84363,2.03703 l 1.2357,0.87301 16.99389,0.0796 16.99389,0.0796 1.09626,-0.6995 c 2.78379,-1.77627 2.98779,-2.48875 2.98779,-10.43483 0,-3.83987 0.11988,-6.60178 0.30124,-6.94067 0.24552,-0.45875 0.61851,-0.56288 2.01625,-0.56288 2.767406,0 2.692146,-0.23362 2.568406,7.97294 -0.12898,8.55515 -0.36422,9.43741 -3.255076,12.20859 -3.33792,3.19971 -1.50406,2.94618 -21.7101,3.00146 -9.68316,0.0265 -18.18331,-0.0685 -18.88923,-0.21105 z"
       id="path849-4"
       inkscape:export-xdpi="89.800003"
       inkscape:export-ydpi="89.800003" />
  </g>
</svg>
